<?xml version="1.0" standalone="no"?>
<!DOCTYPE svg PUBLIC "-//W3C//DTD SVG 20010904//EN"
 "http://www.w3.org/TR/2001/REC-SVG-20010904/DTD/svg10.dtd">
<svg version="1.0" xmlns="http://www.w3.org/2000/svg"
 width="256.000000pt" height="256.000000pt" viewBox="0 0 256.000000 256.000000"
 preserveAspectRatio="xMidYMid meet">

<g transform="translate(0.000000,256.000000) scale(0.100000,-0.100000)"
fill="#000000" stroke="none">
<path d="M1140 2554 c-560 -72 -997 -472 -1116 -1024 -26 -119 -26 -381 0
-500 86 -401 349 -736 709 -905 134 -63 170 -72 202 -51 25 16 25 19 25 139
l0 122 -112 0 c-97 0 -120 3 -163 23 -72 33 -121 86 -165 177 -39 81 -76 128
-143 178 -43 32 -47 54 -12 63 69 17 163 -35 224 -124 74 -109 145 -148 255
-140 91 8 114 23 136 86 9 30 27 66 38 82 24 32 20 40 -18 40 -47 0 -179 38
-246 71 -169 84 -258 225 -285 456 -19 157 16 302 96 408 26 33 27 37 15 86
-15 61 -8 185 13 244 12 35 18 40 49 43 49 4 148 -30 241 -84 l77 -45 83 18
c115 25 372 25 479 0 l77 -18 78 45 c93 54 192 88 241 84 31 -3 37 -8 49 -43
21 -59 28 -183 13 -244 -12 -49 -11 -53 15 -86 80 -106 114 -248 96 -409 -26
-227 -115 -371 -284 -454 -64 -32 -209 -72 -259 -72 -31 0 -36 -11 -14 -29 8
-6 24 -35 37 -64 23 -49 24 -65 27 -295 l4 -243 24 -16 c24 -15 29 -15 80 1
80 25 239 108 319 166 39 27 110 90 158 138 178 176 298 399 353 652 26 119
26 381 0 500 -109 506 -485 887 -986 1001 -83 19 -331 33 -410 23z"/>
</g>
</svg>
