<?xml version="1.0" encoding="UTF-8"?>
<svg version="1.1" xmlns="http://www.w3.org/2000/svg" width="648" height="779">
<path d="M0 0 C1.06651291 0.33796097 2.13302582 0.67592194 3.2318573 1.02412415 C6.7757601 2.14972253 10.31557894 3.2876311 13.85546875 4.42578125 C15.74010441 5.02664932 17.62474357 5.62750692 19.50966072 6.22749138 C41.87230918 13.34613162 64.19419384 20.59333896 86.5158968 27.83914661 C100.91596513 32.51296329 115.32190136 37.16509245 129.76171875 41.71484375 C130.39316803 41.91385033 131.02461731 42.1128569 131.67520142 42.31789398 C138.13778668 44.35391783 144.60265578 46.38249171 151.0703125 48.40234375 C169.81690278 54.28002545 188.39259719 60.52149073 207.04296875 66.73828125 C207.04296875 273.97828125 207.04296875 481.21828125 207.04296875 694.73828125 C199.16862106 698.11300169 199.16862106 698.11300169 194.89892578 699.38208008 C193.93087509 699.67210907 192.9628244 699.96213806 191.96543884 700.26095581 C190.39893333 700.72346237 190.39893333 700.72346237 188.80078125 701.1953125 C187.67865738 701.53039825 186.55653351 701.86548401 185.40040588 702.21072388 C182.3085503 703.13339736 179.21565142 704.05247503 176.12234116 704.97025681 C172.79907424 705.95739604 169.4773145 706.94957784 166.15551758 707.94165039 C164.77143957 708.35496847 163.38736058 708.76828326 162.00328064 709.18159485 C161.30673811 709.38960535 160.61019558 709.59761585 159.8925457 709.8119297 C157.73301373 710.45662201 155.5733209 711.10077295 153.41358948 711.74479675 C137.60979176 716.45838707 121.82023561 721.21905286 106.03120804 725.98183823 C102.19011178 727.14037973 98.34883338 728.29831701 94.50756836 729.45629883 C85.3524987 732.21628621 76.19769599 734.97715834 67.04296875 737.73828125 C66.29323792 737.96440346 65.54350708 738.19052567 64.77105713 738.42350006 C60.2824036 739.77730267 55.79375927 741.1311358 51.30512047 742.48498726 C49.12218335 743.14339611 46.93924291 743.80179394 44.75630188 744.46018982 C32.77403164 748.07364109 32.77403164 748.07364109 20.7928009 751.6905365 C18.44264755 752.3984929 16.09143019 753.10292876 13.73905945 753.80348206 C8.53109669 755.3577531 3.35097857 756.95192618 -1.79443359 758.703125 C-2.69634933 759.00085815 -3.59826508 759.29859131 -4.5275116 759.60534668 C-6.16089018 760.14743324 -7.78748534 760.71075337 -9.40376282 761.30187988 C-15.68300645 763.35145325 -19.9082305 762.03734586 -25.95703125 759.73828125 C-27.78405321 759.10668253 -29.61154451 758.47644015 -31.43945312 757.84741211 C-33.43583379 757.13527372 -35.43122955 756.42036997 -37.42578125 755.703125 C-39.06341431 755.11763885 -39.06341431 755.11763885 -40.73413086 754.52032471 C-44.30934003 753.24133334 -47.88320271 751.95862488 -51.45703125 750.67578125 C-53.34618792 749.99918894 -55.23534538 749.32259882 -57.12459564 748.64626789 C-77.67193618 741.29048661 -98.20669882 733.89963273 -118.73828125 726.5 C-133.11804959 721.31757732 -147.50301513 716.1496354 -161.88796997 710.98163223 C-181.57995771 703.90689811 -201.27046061 696.82807902 -220.95703125 689.73828125 C-238.98477457 683.24606769 -257.01533983 676.76173068 -275.04753494 670.28189468 C-277.76020573 669.30707352 -280.47284167 668.33215543 -283.18547916 667.35724163 C-296.20429006 662.67837842 -309.22355647 658.0007936 -322.24475098 653.3285675 C-327.02698376 651.61259475 -331.80893868 649.89584822 -336.59083939 648.17895031 C-339.76584188 647.03905585 -342.94102163 645.8996625 -346.11651611 644.76113892 C-373.76470238 634.84811163 -401.35329538 624.77600338 -428.95703125 614.73828125 C-428.95703125 460.62828125 -428.95703125 306.51828125 -428.95703125 147.73828125 C-418.83121143 143.23791689 -418.83121143 143.23791689 -415.03125 141.82568359 C-414.16703934 141.50295975 -413.30282867 141.1802359 -412.41242981 140.84773254 C-411.49902328 140.50997299 -410.58561676 140.17221344 -409.64453125 139.82421875 C-408.65938034 139.45741501 -407.67422943 139.09061127 -406.65922546 138.71269226 C-403.42624023 137.50996085 -400.191685 136.31151734 -396.95703125 135.11328125 C-394.66636872 134.26243325 -392.37576092 133.41143791 -390.08520508 132.56030273 C-372.93805984 126.19361443 -355.77131809 119.88048678 -338.59838867 113.58374023 C-323.31106746 107.97742309 -308.03731905 102.3350662 -292.76953125 96.67578125 C-291.63695892 96.25598999 -290.5043866 95.83619873 -289.3374939 95.40368652 C-284.81489008 93.72732407 -280.29230057 92.05092307 -275.76976013 90.37438965 C-264.66813177 86.25944216 -253.56303093 82.15391371 -242.45703125 78.05078125 C-241.52218903 77.705383 -240.5873468 77.35998474 -239.62417603 77.00411987 C-234.94220206 75.27427719 -230.26017878 73.54456806 -225.578125 71.81494141 C-216.99847178 68.64539394 -208.4193029 65.47453586 -199.84008789 62.30380249 C-195.04575461 60.53191085 -190.25139145 58.76010006 -185.45703125 56.98828125 C-183.54036444 56.27994831 -181.62369777 55.57161497 -179.70703125 54.86328125 C-160.54036458 47.77994792 -141.37369792 40.69661458 -122.20703125 33.61328125 C-121.25843231 33.26271164 -120.30983337 32.91214203 -119.33248901 32.5509491 C-117.41429762 31.84205316 -115.49610507 31.13316034 -113.57791138 30.42427063 C-108.80956365 28.66207055 -104.04123543 26.89981771 -99.27294922 25.13745117 C-90.37032317 21.84708877 -81.46750753 18.5572422 -72.56402588 15.26919556 C-68.40361265 13.73272357 -64.24330643 12.19596196 -60.08300781 10.65917969 C-58.11854275 9.93361254 -56.15402651 9.20818396 -54.18945312 8.48291016 C-52.33860649 7.79961462 -50.48791475 7.11589935 -48.63739014 6.43173218 C-46.8772405 5.78207227 -45.11623188 5.13473417 -43.35430908 4.48989868 C-39.34294662 3.01727991 -35.35739177 1.50982369 -31.40527344 -0.11572266 C-30.69176727 -0.40280594 -29.97826111 -0.68988922 -29.24313354 -0.985672 C-27.35395804 -1.74990308 -25.47318467 -2.53481663 -23.59326172 -3.3215332 C-15.42857098 -5.43259967 -7.79715547 -2.52432784 0 0 Z M-23.09170532 122.67773438 C-24.43517391 122.99164312 -24.43517391 122.99164312 -25.80578327 123.31189346 C-26.80009452 123.54541393 -27.79440577 123.7789344 -28.81884766 124.01953125 C-29.86508143 124.26432095 -30.91131521 124.50911064 -31.98925304 124.76131821 C-35.51260799 125.58594523 -39.03559473 126.41213505 -42.55859375 127.23828125 C-45.05667114 127.82320839 -47.55477451 128.4080246 -50.05290222 128.99273682 C-55.41875613 130.24884905 -60.78446635 131.5055723 -66.15005493 132.76281738 C-78.88995303 135.7479142 -91.6307267 138.72927085 -104.37146187 141.71079254 C-107.26526521 142.38798709 -110.15905714 143.06523041 -113.05283928 143.74251556 C-140.88107649 150.25560678 -168.71306385 156.75253224 -196.54784393 163.23760986 C-199.72010557 163.97676479 -202.89231786 164.71613112 -206.06451416 165.45556641 C-211.09839547 166.62892985 -216.13238819 167.80181415 -221.16646767 168.97432709 C-222.95540479 169.39103935 -224.74431626 169.80786175 -226.53319359 170.22483063 C-246.00030863 174.7619411 -265.4800063 179.24358319 -284.95703125 183.73828125 C-284.95703125 305.17828125 -284.95703125 426.61828125 -284.95703125 551.73828125 C-287.92703125 552.72828125 -290.89703125 553.71828125 -293.95703125 554.73828125 C-295.92262777 555.54900761 -297.87511064 556.39275913 -299.80859375 557.27734375 C-300.88592773 557.76614014 -301.96326172 558.25493652 -303.07324219 558.75854492 C-304.23114258 559.28810791 -305.38904297 559.8176709 -306.58203125 560.36328125 C-309.18205083 561.54248764 -311.78414639 562.71706488 -314.38671875 563.890625 C-315.07278198 564.20020645 -315.75884521 564.5097879 -316.46569824 564.82875061 C-324.84689024 568.60222654 -333.27709304 572.26285896 -341.70703125 575.92578125 C-345.02486896 577.36819218 -348.34256408 578.81093066 -351.66015625 580.25390625 C-352.49719086 580.61793045 -353.33422546 580.98195465 -354.19662476 581.35700989 C-363.96060992 585.60596939 -373.70875742 589.89093075 -383.45703125 594.17578125 C-397.60974187 600.39568455 -411.7710143 606.59460906 -425.95703125 612.73828125 C-425.95703125 613.06828125 -425.95703125 613.39828125 -425.95703125 613.73828125 C-404.29931633 616.69584173 -382.61710022 619.40116296 -360.91462064 622.00697827 C-356.35453389 622.55494275 -351.79471803 623.10515349 -347.23486328 623.65504456 C-338.35439873 624.72561436 -329.47368934 625.79413923 -320.59288208 626.86186209 C-313.37864185 627.72924846 -306.16448973 628.59736417 -298.95039749 629.46598053 C-297.91763198 629.59032983 -296.88486646 629.71467912 -295.82080502 629.84279658 C-293.72207583 630.09549433 -291.62334678 630.3481932 -289.52461787 630.60089317 C-269.94622377 632.95815765 -250.36754082 635.3130157 -230.7887605 637.66706982 C-212.87434502 639.82107835 -194.96027017 641.97790511 -177.04635458 644.13606665 C-158.60832105 646.3573497 -140.17007888 648.57689289 -121.7316004 650.79447961 C-119.64921832 651.04493213 -117.56683656 651.29538726 -115.48445511 651.54584503 C-114.46009035 651.66905004 -113.43572559 651.79225505 -112.38031947 651.91919355 C-105.16219327 652.78746478 -97.94420415 653.65686982 -90.72626877 654.52672577 C-81.95044481 655.58430387 -73.17442311 656.64022227 -64.39813893 657.69397464 C-59.92145074 658.23152734 -55.44485863 658.76984979 -50.96850967 659.31022072 C-46.87537114 659.80431078 -42.78197758 660.29622734 -38.68836565 660.78637937 C-37.20457909 660.96443369 -35.72088921 661.14329591 -34.23730509 661.32302925 C-32.22723959 661.56642505 -30.21678929 661.8066368 -28.20631981 662.04667282 C-27.08797764 662.18120385 -25.96963547 662.31573488 -24.81740415 662.4543426 C-21.77269696 662.80413513 -21.77269696 662.80413513 -17.95703125 662.73828125 C-17.95703125 484.20828125 -17.95703125 305.67828125 -17.95703125 121.73828125 C-19.71140375 121.73828125 -21.38974823 122.27897396 -23.09170532 122.67773438 Z " fill="#EB3B00" transform="translate(434.95703125,10.26171875)"/>
</svg>
