<?xml version="1.0" standalone="no"?>
<!DOCTYPE svg PUBLIC "-//W3C//DTD SVG 20010904//EN"
 "http://www.w3.org/TR/2001/REC-SVG-20010904/DTD/svg10.dtd">
<svg version="1.0" xmlns="http://www.w3.org/2000/svg"
 width="330.000000pt" height="330.000000pt" viewBox="0 0 330.000000 330.000000"
 preserveAspectRatio="xMidYMid meet">

<g transform="translate(0.000000,330.000000) scale(0.100000,-0.100000)"
fill="#000000" stroke="none">
<path d="M1667 3244 c-3 -4 -51 -11 -106 -15 -206 -18 -441 -84 -441 -124 0
-8 12 -22 27 -32 23 -15 62 -19 272 -25 367 -10 565 -51 641 -133 36 -38 34
-119 -4 -195 -91 -177 -270 -357 -621 -623 -124 -94 -208 -178 -203 -203 20
-106 551 179 856 459 315 289 419 559 277 716 -69 76 -227 138 -418 162 -110
14 -271 22 -280 13z"/>
<path d="M2491 2159 c-174 -20 -307 -76 -390 -164 -74 -78 -88 -149 -51 -266
35 -114 121 -235 385 -545 159 -186 237 -298 261 -373 17 -52 17 -56 -2 -90
-44 -83 -161 -105 -659 -126 -359 -15 -419 -21 -441 -46 -23 -25 -11 -47 37
-72 61 -30 414 -74 649 -80 440 -13 690 64 776 239 23 46 26 64 22 127 -6 129
-75 240 -335 541 -270 313 -322 388 -338 483 -22 136 107 175 630 186 195 5
255 18 255 55 0 44 -62 71 -232 101 -220 39 -402 49 -567 30z"/>
<path d="M975 1719 c-146 -8 -248 -23 -380 -55 -117 -29 -147 -40 -180 -66
-20 -15 -23 -23 -15 -38 18 -33 66 -40 279 -40 388 0 615 -32 723 -101 64 -41
82 -77 82 -159 0 -114 -75 -243 -233 -401 -241 -240 -607 -454 -736 -430 -43
9 -43 41 0 152 40 103 90 201 233 449 143 249 159 319 66 296 -58 -15 -172
-157 -401 -501 -164 -246 -368 -612 -393 -704 -16 -61 -7 -71 60 -71 151 0
492 122 824 293 422 218 715 477 863 762 78 150 99 254 69 338 -68 190 -409
299 -861 276z"/>
</g>
</svg>
